<svg xmlns="http://www.w3.org/2000/svg" width="694.35" height="330.7" viewBox="0 0 694.35 330.7"><defs><style>.cls-1{fill:#fff;}</style></defs><title>olli-logo_1</title><g id="Layer_2" data-name="Layer 2"><g id="Layer_2-2" data-name="Layer 2"><g id="final_logo" data-name="final logo"><path class="cls-1" d="M244.08,140.89c0,102.34-146.67,123.68-146.67,35.57,0-54.09,74.33-64,74.33-73.57C171.74,79,0,86.16,0,223.74c0,79.46,89.56,107,126.41,107,158.16,0,218.42-136,218.42-203.82C344.83,34.73,270.71,0,197.19,0S23.52,52.26,23.52,68.65C23.52,97.65,244.08,17.2,244.08,140.89Z"/><path class="cls-1" d="M436.14,73.16C384.42,73.16,311,224,311,270.1c0,23.71,12.2,60.6,56.81,60.6,59.37,0,84.59-59.22,84.59-83.4s-32.71,36.21-66.86,36.21S411.27,108.19,427,108.19c5.72,0,.16,36.92-11.31,69.61-11.26,32.13-28.38,60-28.38,65.47,0,23.72,84.22-32.92,84.22-114.47C471.54,100.07,465.45,73.16,436.14,73.16Z"/><path class="cls-1" d="M579.58,73.32c-60.5,0-127.84,151.64-127.84,200.18,0,44.85,34.78,57.2,56.83,57.2,48,0,102.63-80.63,110.94-80.63,10,0-24.75,80.63,20.36,80.63,26.53,0,50.31-38.75,50.31-38.75s13.25-17.14-7.46-17.14c-7.39,0-38.34,39-38.34-16,0-50.51-.65-58.23-9.78-58.23-18.76,0-75.85,83.07-103.75,83.07-37.21,0,20.8-175.45,37-175.45,7.43,0,.21,40.84-13,74.78-13.93,35.91-35.65,65.18-22.16,65.18,35.37,0,79.37-70.64,79.37-117.76C612.08,110.79,607.52,73.32,579.58,73.32Z"/></g></g></g></svg>